<svg width="122" height="22" viewBox="0 0 122 22" fill="none" xmlns="http://www.w3.org/2000/svg">
<g clip-path="url(#clip0_8_17)">
<path fill-rule="evenodd" clip-rule="evenodd" d="M11.4033 9.13483C11.3952 10.5066 10.8527 11.1183 10.2052 11.4536C9.55107 11.7856 8.76416 11.792 8.33069 11.7912L4.17938 11.7904V6.47925H8.33069C8.7359 6.47766 9.52301 6.48441 10.1845 6.81648C10.8409 7.15292 11.3952 7.76605 11.4033 9.13483ZM13.4329 4.20874C12.1015 2.98724 10.2876 2.26196 8.33069 2.26196H0V21.6442H4.17938V16.0061H8.33069V16.0053C10.2876 16.0053 12.1023 15.2784 13.4337 14.0546C14.7685 12.8384 15.5895 11.0868 15.5887 9.14753V9.12927C15.5895 7.1825 14.7725 5.42706 13.4329 4.20874Z" fill="white"/>
<path fill-rule="evenodd" clip-rule="evenodd" d="M119.604 11.1224V11.1221C118.389 10.0353 116.83 9.87098 115.047 9.87018L112.464 9.87098C112.059 9.87177 111.441 9.8545 110.952 9.64311C110.465 9.42259 110.107 9.07583 110.097 8.27176C110.106 7.34164 110.475 6.94764 110.941 6.71521C111.413 6.48734 112.007 6.47603 112.383 6.47782H112.428L120.043 6.47861V2.26172H112.464C110.738 2.26172 109.126 2.67061 107.921 3.75336C106.721 4.81706 105.937 6.55483 105.935 8.27017V8.27176C105.937 9.98293 106.647 11.7566 107.852 12.8263C109.069 13.9124 110.588 14.0619 112.464 14.0611H115.09H115.111C115.444 14.0603 116.026 14.0682 116.497 14.2699C116.964 14.4797 117.324 14.8183 117.333 15.6266C117.324 16.572 116.933 16.9755 116.45 17.2129C115.962 17.4439 115.366 17.4526 115.036 17.4507H106.966H106.761V21.6443H115.047C116.771 21.6443 118.389 21.2178 119.591 20.1426C120.788 19.0828 121.567 17.3727 121.585 15.6738V15.6266C121.582 13.9074 120.806 12.1885 119.604 11.1224Z" fill="white"/>
<path fill-rule="evenodd" clip-rule="evenodd" d="M55.8799 5.23578V21.6446H60.3031V0.19873L55.8799 5.15737V5.23578Z" fill="white"/>
<path fill-rule="evenodd" clip-rule="evenodd" d="M28.9152 9.13527C28.9068 10.507 28.3637 11.1184 27.7163 11.454C27.0619 11.7853 26.2746 11.7928 25.8413 11.7912H21.691V6.4793H25.8413C26.2461 6.47771 27.0334 6.48446 27.6952 6.81653C28.3519 7.15376 28.9068 7.76511 28.9152 9.13527ZM28.4473 15.5496C29.3817 15.215 30.2333 14.709 30.9447 14.0546C32.2782 12.8383 33.0999 11.0868 33.0999 9.14758V9.12932C33.0999 7.18254 32.2831 5.42711 30.9438 4.20878C29.6137 2.98649 27.7981 2.26221 25.8413 2.26221H17.5112V21.6442H21.691V13.8188L28.4682 21.6569H33.6878L33.3984 21.3189L28.4473 15.5496Z" fill="white"/>
<path fill-rule="evenodd" clip-rule="evenodd" d="M88.1153 3.74304C87.1369 4.62691 86.5845 5.83273 86.5851 7.1368L86.5845 16.8046C86.5845 18.1063 87.1362 19.318 88.1185 20.1938C89.0692 21.0721 90.2287 21.6574 91.7745 21.6574H91.7844H104.102V17.4783H103.897H91.3709C91.2126 17.4707 91.1402 17.4511 90.9746 17.3141C90.8488 17.197 90.7575 17.0303 90.7567 16.8046V14.0746H102.208L102.23 9.89539H90.7567V7.1757C90.7567 6.9524 90.8504 6.77634 90.9796 6.664C91.1402 6.52903 91.2102 6.51136 91.38 6.50164H104.102V2.28296H91.7792C90.2211 2.28693 89.0714 2.87386 88.1153 3.74304Z" fill="white"/>
<path fill-rule="evenodd" clip-rule="evenodd" d="M78.227 2.31079H68.5328C67.2278 2.31 66.012 2.8614 65.1342 3.84114C64.2517 4.7921 63.6646 5.95087 63.667 7.49651V21.641H67.8575V21.4356V7.08405C67.8647 6.92744 67.885 6.8532 68.0217 6.68925C68.1389 6.56341 68.3075 6.47191 68.5328 6.47111H71.2693L71.2701 21.6194L75.4602 21.6418V6.47111H78.1889C78.4093 6.47111 78.5874 6.5652 78.7012 6.69461C78.8361 6.85479 78.8535 6.92426 78.8634 7.09457L78.8626 21.641H83.0924V7.49174C83.0902 5.93738 82.5007 4.7913 81.6296 3.83677C80.7425 2.8614 79.5327 2.31 78.227 2.31079Z" fill="white"/>
<path fill-rule="evenodd" clip-rule="evenodd" d="M38 2V6.16052H43.6847V23.1055L47.9019 18.3144V18.2368V6.16052L53.6092 6.16131V2H38Z" fill="white"/>
</g>
<defs>
<clipPath id="clip0_8_17">
<rect width="122" height="22" fill="white"/>
</clipPath>
</defs>
</svg>
