<svg width="18" height="18" viewBox="0 0 18 18" fill="none" xmlns="http://www.w3.org/2000/svg">
<path fill-rule="evenodd" clip-rule="evenodd" d="M11.7805 6.89023C11.7805 9.59099 9.59098 11.7805 6.89022 11.7805C4.18943 11.7805 1.99999 9.59099 1.99999 6.89023C1.99999 4.18944 4.18943 2.00001 6.89022 2.00001C9.59098 2.00001 11.7805 4.18944 11.7805 6.89023ZM11.1557 12.3018C9.98248 13.2278 8.50089 13.7805 6.89022 13.7805C3.08486 13.7805 0 10.6956 0 6.89023C0 3.08486 3.08486 0 6.89022 0C10.6956 0 13.7805 3.08486 13.7805 6.89023C13.7805 8.50074 13.2279 9.9822 12.3021 11.1554L16.8435 15.6968C17.16 16.0133 17.16 16.5266 16.8435 16.8431C16.5269 17.1597 16.0136 17.1597 15.6971 16.8431L11.1557 12.3018Z" fill="white"/>
</svg>
